<svg xmlns="http://www.w3.org/2000/svg" viewBox="0 0 32 32">
  <defs>
    <linearGradient id="glow" x1="0%" y1="0%" x2="100%" y2="100%">
      <stop offset="0%" style="stop-color:#ff9900;stop-opacity:1" />
      <stop offset="100%" style="stop-color:#cc7a00;stop-opacity:1" />
    </linearGradient>
  </defs>
  <!-- Panel background -->
  <rect x="2" y="2" width="28" height="28" rx="3" fill="#0a0a0f" stroke="#252535" stroke-width="1"/>
  <!-- LED grid 4x4 -->
  <rect x="5" y="5" width="4" height="4" rx="0.5" fill="url(#glow)"/>
  <rect x="11" y="5" width="4" height="4" rx="0.5" fill="url(#glow)"/>
  <rect x="17" y="5" width="4" height="4" rx="0.5" fill="#1a1a25"/>
  <rect x="23" y="5" width="4" height="4" rx="0.5" fill="url(#glow)"/>
  
  <rect x="5" y="11" width="4" height="4" rx="0.5" fill="#1a1a25"/>
  <rect x="11" y="11" width="4" height="4" rx="0.5" fill="url(#glow)"/>
  <rect x="17" y="11" width="4" height="4" rx="0.5" fill="url(#glow)"/>
  <rect x="23" y="11" width="4" height="4" rx="0.5" fill="#1a1a25"/>
  
  <rect x="5" y="17" width="4" height="4" rx="0.5" fill="url(#glow)"/>
  <rect x="11" y="17" width="4" height="4" rx="0.5" fill="#1a1a25"/>
  <rect x="17" y="17" width="4" height="4" rx="0.5" fill="#1a1a25"/>
  <rect x="23" y="17" width="4" height="4" rx="0.5" fill="url(#glow)"/>
  
  <rect x="5" y="23" width="4" height="4" rx="0.5" fill="url(#glow)"/>
  <rect x="11" y="23" width="4" height="4" rx="0.5" fill="url(#glow)"/>
  <rect x="17" y="23" width="4" height="4" rx="0.5" fill="url(#glow)"/>
  <rect x="23" y="23" width="4" height="4" rx="0.5" fill="url(#glow)"/>
</svg>

